<svg width="211" height="28" viewBox="0 0 211 28" fill="none" xmlns="http://www.w3.org/2000/svg">
<path d="M8.88998 14.7332V15.1666H9.71331L10.0672 14.1771H11.8438L12.2049 15.1666H13.1005V14.6682L11.5261 10.5083H10.4789L8.88998 14.7332ZM11.5766 13.3394H10.3633L10.97 11.6277L11.5766 13.3394Z" fill="#47B5FF"/>
<path d="M14.6532 14.5743C14.2199 14.5743 14.0105 14.307 13.9816 14.2132H13.281V14.632C13.3532 14.8343 13.7866 15.2531 14.6388 15.2531C15.4838 15.2531 15.9749 14.8126 15.9749 14.1915C15.9749 13.5921 15.556 13.3609 14.9566 13.2743L14.5593 13.2165C14.3066 13.1732 14.1621 13.0793 14.1621 12.9132C14.1621 12.7398 14.2849 12.6171 14.581 12.6171C14.9638 12.6171 15.1154 12.8843 15.1299 12.9493H15.8377V12.5304C15.7004 12.2054 15.3249 11.931 14.6027 11.931C13.8082 11.931 13.3244 12.3571 13.3244 12.9637C13.3244 13.5487 13.6999 13.8232 14.2632 13.9026L14.6604 13.9532C14.9566 14.0037 15.1371 14.0759 15.1371 14.2782C15.1371 14.4515 15.0143 14.5743 14.6532 14.5743Z" fill="#47B5FF"/>
<path d="M18.156 15.1664V10.5154H17.311L16.1338 11.3531V11.8154H16.8488L17.1233 11.5843V15.1664H18.156Z" fill="#47B5FF"/>
<path d="M10.3416 19.0157L4.96108 22.8795V25.6817H9.28713L15.5198 21.2473L13.4904 26.8372V28H15.7004L18.9214 19.0157H10.3416Z" fill="#47B5FF"/>
<path d="M11.7283 1.70437V1.07605H10.5439L8.88278 6.66597H10.255L11.7283 1.70437Z" fill="#47B5FF"/>
<path d="M1.9929 14.206V15.3976L7.51782 17.2537V8.61607L3.67565 3.04059H0.880692V7.36664L6.47783 15.4987L2.614 14.206H1.9929Z" fill="#47B5FF"/>
<path d="M18.6038 6.66602L23.9265 2.79496V0H19.6004L10.255 6.66602H18.6038Z" fill="#47B5FF"/>
<path d="M20.7849 11.6926L23.356 7.92263V5.99432H22.1138L19.8749 9.26594V18.7341L22.6482 22.7496H25.4504V18.4236L20.7849 11.6926Z" fill="#47B5FF"/>
<path d="M43.3584 20.552L42.1544 24.248H37.4504V22.288L44.1144 3.24799H50.4144L57.0504 22.008V24.248H51.8424L50.6664 20.552H43.3584ZM44.8144 15.904H49.2384L47.0544 8.84799L44.8144 15.904Z" fill="black"/>
<path d="M64.8534 24.752C63.0987 24.752 61.6521 24.444 60.5134 23.828C59.3561 23.212 58.6374 22.512 58.3574 21.728V19.796H62.4174C62.4921 20.1507 62.7721 20.4773 63.2574 20.776C63.7427 21.056 64.3121 21.196 64.9654 21.196C66.2161 21.196 66.8414 20.8413 66.8414 20.132C66.8414 19.4973 66.3001 19.124 65.2174 19.012L63.2854 18.844C61.7361 18.7133 60.5507 18.2747 59.7294 17.528C58.9267 16.7813 58.5254 15.7453 58.5254 14.42C58.5254 12.908 59.0854 11.7133 60.2054 10.836C61.3441 9.93999 62.8654 9.49199 64.7694 9.49199C66.4307 9.49199 67.7654 9.77199 68.7734 10.332C69.8001 10.8733 70.4721 11.592 70.7894 12.488V14.42H66.7294C66.6547 14.1213 66.4307 13.8227 66.0574 13.524C65.6841 13.2067 65.2174 13.048 64.6574 13.048C63.5747 13.048 63.0334 13.412 63.0334 14.14C63.0334 14.7373 63.5094 15.092 64.4614 15.204L66.4774 15.428C68.1014 15.596 69.3241 16.0253 70.1454 16.716C70.9667 17.388 71.3774 18.396 71.3774 19.74C71.3774 21.2147 70.7894 22.4187 69.6134 23.352C68.4374 24.2853 66.8507 24.752 64.8534 24.752Z" fill="black"/>
<path d="M82.7517 24.248H77.0677V8.90399L76.6757 9.21199H72.5877V7.02799L78.2997 3.24799H82.7517V24.248Z" fill="black"/>
<path d="M100.656 23.24C99.1517 23.24 97.8877 22.928 96.8637 22.304C95.8397 21.664 95.1357 20.888 94.7517 19.976V18.632H96.2637C96.5837 19.528 97.1117 20.24 97.8477 20.768C98.5997 21.28 99.5517 21.536 100.704 21.536C101.792 21.536 102.688 21.248 103.392 20.672C104.096 20.08 104.448 19.288 104.448 18.296C104.448 17.464 104.176 16.784 103.632 16.256C103.104 15.728 102.176 15.28 100.848 14.912L99.7677 14.6C98.1197 14.136 96.9117 13.496 96.1437 12.68C95.3917 11.848 95.0157 10.8 95.0157 9.53601C95.0157 8.12801 95.5277 6.98401 96.5517 6.10401C97.5757 5.20801 98.9597 4.76001 100.704 4.76001C102.128 4.76001 103.272 5.04001 104.136 5.60001C105 6.16001 105.568 6.92001 105.84 7.88001V9.22401H104.352C104.176 8.52001 103.824 7.88801 103.296 7.32801C102.752 6.75201 101.848 6.46401 100.584 6.46401C99.4477 6.46401 98.5677 6.74401 97.9437 7.30401C97.3197 7.86401 97.0077 8.56001 97.0077 9.39201C97.0077 10.256 97.2877 10.936 97.8477 11.432C98.4237 11.928 99.2797 12.336 100.416 12.656L101.808 13.088C103.36 13.552 104.52 14.2 105.288 15.032C106.072 15.848 106.464 16.936 106.464 18.296C106.464 19.784 105.92 20.984 104.832 21.896C103.76 22.792 102.368 23.24 100.656 23.24Z" fill="#8E9291"/>
<path d="M114.116 23.24C112.82 23.24 111.82 22.888 111.116 22.184C110.412 21.48 110.06 20.464 110.06 19.136V12.704H108.116V11.072H110.156L110.276 8.00001H111.956V11.072H116.66V12.704H111.956V18.896C111.956 20.704 112.684 21.608 114.14 21.608C115.212 21.608 115.844 21.096 116.036 20.072H117.284V21.32C117.108 21.752 116.788 22.176 116.324 22.592C115.812 23.024 115.076 23.24 114.116 23.24Z" fill="#8E9291"/>
<path d="M122.59 23.24C121.294 23.24 120.286 22.896 119.566 22.208C118.862 21.52 118.51 20.648 118.51 19.592C118.51 18.52 118.91 17.664 119.71 17.024C120.51 16.384 121.726 16.064 123.358 16.064C123.838 16.064 124.318 16.096 124.798 16.16C125.294 16.208 125.662 16.256 125.902 16.304L126.286 16.376V15.536C126.286 13.488 125.334 12.464 123.43 12.464C122.982 12.464 122.574 12.528 122.206 12.656C121.838 12.768 121.55 12.912 121.342 13.088C121.134 13.248 120.958 13.416 120.814 13.592C120.67 13.768 120.574 13.912 120.526 14.024C120.478 14.12 120.454 14.176 120.454 14.192H119.206V12.92C119.238 12.856 119.278 12.784 119.326 12.704C119.39 12.608 119.534 12.44 119.758 12.2C119.998 11.96 120.262 11.752 120.55 11.576C120.838 11.384 121.246 11.216 121.774 11.072C122.302 10.912 122.87 10.832 123.478 10.832C125.014 10.832 126.182 11.24 126.982 12.056C127.782 12.856 128.182 14.032 128.182 15.584V23H126.67L126.454 20.912C126.118 21.568 125.622 22.12 124.966 22.568C124.31 23.016 123.518 23.24 122.59 23.24ZM122.878 21.68C123.918 21.68 124.742 21.36 125.35 20.72C125.974 20.064 126.286 19.336 126.286 18.536V17.84C125.486 17.632 124.51 17.528 123.358 17.528C122.19 17.528 121.398 17.736 120.982 18.152C120.566 18.6 120.358 19.08 120.358 19.592C120.358 20.984 121.198 21.68 122.878 21.68Z" fill="#8E9291"/>
<path d="M133.693 23H131.797V11.072H133.477L133.621 12.8C134.293 11.488 135.413 10.832 136.981 10.832C137.813 10.832 138.501 11.04 139.045 11.456C139.589 11.856 139.933 12.384 140.077 13.04V14.288H138.829C138.749 13.84 138.517 13.424 138.133 13.04C137.765 12.64 137.205 12.44 136.453 12.44C135.525 12.44 134.829 12.776 134.365 13.448C133.917 14.104 133.693 14.944 133.693 15.968V23Z" fill="#8E9291"/>
<path d="M146.835 23.24C145.539 23.24 144.539 22.888 143.835 22.184C143.131 21.48 142.779 20.464 142.779 19.136V12.704H140.835V11.072H142.875L142.995 8.00001H144.675V11.072H149.379V12.704H144.675V18.896C144.675 20.704 145.403 21.608 146.859 21.608C147.931 21.608 148.563 21.096 148.755 20.072H150.003V21.32C149.827 21.752 149.507 22.176 149.043 22.592C148.531 23.024 147.795 23.24 146.835 23.24Z" fill="#8E9291"/>
<path d="M157.397 23.24C155.461 23.24 153.973 22.664 152.933 21.512C151.893 20.376 151.373 18.88 151.373 17.024C151.373 15.264 151.885 13.792 152.909 12.608C153.933 11.424 155.357 10.832 157.181 10.832C158.941 10.832 160.277 11.32 161.189 12.296C162.117 13.256 162.581 14.52 162.581 16.088L162.509 17.288H153.269C153.333 18.648 153.725 19.712 154.445 20.48C155.165 21.232 156.149 21.608 157.397 21.608C158.517 21.608 159.381 21.392 159.989 20.96C160.597 20.528 160.957 20.112 161.069 19.712H162.317V20.96C162.301 21.04 162.237 21.16 162.125 21.32C162.013 21.464 161.829 21.656 161.573 21.896C161.317 22.12 161.013 22.328 160.661 22.52C160.309 22.712 159.845 22.88 159.269 23.024C158.693 23.168 158.069 23.24 157.397 23.24ZM153.365 15.848H160.733C160.733 14.808 160.421 13.984 159.797 13.376C159.189 12.768 158.325 12.464 157.205 12.464C156.085 12.464 155.205 12.768 154.565 13.376C153.925 13.968 153.525 14.792 153.365 15.848Z" fill="#8E9291"/>
<path d="M167.42 23H165.524V11.072H167.204L167.348 12.8C168.02 11.488 169.14 10.832 170.708 10.832C171.54 10.832 172.228 11.04 172.772 11.456C173.316 11.856 173.66 12.384 173.804 13.04V14.288H172.556C172.476 13.84 172.244 13.424 171.86 13.04C171.492 12.64 170.932 12.44 170.18 12.44C169.252 12.44 168.556 12.776 168.092 13.448C167.644 14.104 167.42 14.944 167.42 15.968V23Z" fill="#8E9291"/>
<path d="M193.119 23L184.311 14.384V23H182.223V5.00001H184.311V13.568L192.783 5.00001H194.103V6.32001L186.519 13.832L194.535 21.584V23H193.119Z" fill="#8E9291"/>
<path d="M198.947 7.95201H196.691V5.72001H198.947V7.95201ZM198.779 23H196.883V11.072H198.779V23Z" fill="#8E9291"/>
<path d="M207.139 23.24C205.843 23.24 204.843 22.888 204.139 22.184C203.435 21.48 203.083 20.464 203.083 19.136V12.704H201.139V11.072H203.179L203.299 8.00001H204.979V11.072H209.683V12.704H204.979V18.896C204.979 20.704 205.707 21.608 207.163 21.608C208.235 21.608 208.867 21.096 209.059 20.072H210.307V21.32C210.131 21.752 209.811 22.176 209.347 22.592C208.835 23.024 208.099 23.24 207.139 23.24Z" fill="#8E9291"/>
</svg>
