<svg width="217" height="28" viewBox="0 0 217 28" fill="none" xmlns="http://www.w3.org/2000/svg">
<path d="M8.88989 14.7332V15.1665H9.71321L10.0671 14.1771H11.8437L12.2048 15.1665H13.1004V14.6682L11.526 10.5083H10.4788L8.88989 14.7332ZM11.5765 13.3393H10.3632L10.9699 11.6277L11.5765 13.3393Z" fill="#47B5FF"/>
<path d="M14.6531 14.5743C14.2198 14.5743 14.0103 14.307 13.9814 14.2131H13.2809V14.632C13.3531 14.8342 13.7864 15.2531 14.6386 15.2531C15.4836 15.2531 15.9747 14.8126 15.9747 14.1915C15.9747 13.592 15.5559 13.3609 14.9564 13.2743L14.5592 13.2165C14.3064 13.1732 14.162 13.0793 14.162 12.9132C14.162 12.7398 14.2848 12.6171 14.5809 12.6171C14.9636 12.6171 15.1153 12.8843 15.1297 12.9493H15.8375V12.5304C15.7003 12.2054 15.3247 11.931 14.6025 11.931C13.8081 11.931 13.3242 12.3571 13.3242 12.9637C13.3242 13.5487 13.6998 13.8231 14.2631 13.9026L14.6603 13.9531C14.9564 14.0037 15.137 14.0759 15.137 14.2781C15.137 14.4515 15.0142 14.5743 14.6531 14.5743Z" fill="#47B5FF"/>
<path d="M18.156 15.1664V10.5154H17.311L16.1338 11.3531V11.8154H16.8488L17.1232 11.5843V15.1664H18.156Z" fill="#47B5FF"/>
<path d="M10.3415 19.0157L4.96106 22.8795V25.6817H9.28711L15.5198 21.2473L13.4904 26.8372V28H15.7004L18.9214 19.0157H10.3415Z" fill="#47B5FF"/>
<path d="M11.7282 1.70441V1.07608H10.5438L8.88269 6.666H10.2549L11.7282 1.70441Z" fill="#47B5FF"/>
<path d="M1.99282 14.206V15.3976L7.51774 17.2537V8.61603L3.67558 3.04056H0.880615V7.36661L6.47776 15.4987L2.61392 14.206H1.99282Z" fill="#47B5FF"/>
<path d="M18.6037 6.66602L23.9264 2.79496V0H19.6003L10.2549 6.66602H18.6037Z" fill="#47B5FF"/>
<path d="M20.7849 11.6926L23.3559 7.92263V5.99432H22.1137L19.8749 9.26594V18.7341L22.6482 22.7496H25.4504V18.4236L20.7849 11.6926Z" fill="#47B5FF"/>
<path d="M43.3583 20.804L42.1543 24.5H37.4503V22.54L44.1143 3.5H50.4143L57.0503 22.26V24.5H51.8423L50.6663 20.804H43.3583ZM44.8143 16.156H49.2383L47.0543 9.1L44.8143 16.156Z" fill="white"/>
<path d="M66.7353 25.004C64.2899 25.004 62.4046 24.5373 61.0793 23.604C59.7353 22.6707 58.8486 21.532 58.4193 20.188V17.976H63.0113C63.4966 19.5627 64.7659 20.356 66.8193 20.356C67.6966 20.356 68.3779 20.188 68.8633 19.852C69.3673 19.516 69.6193 19.04 69.6193 18.424C69.6193 17.3413 68.7139 16.6787 66.9033 16.436L64.6633 16.128C62.6846 15.848 61.1446 15.1667 60.0433 14.084C58.9419 13.0013 58.3913 11.5733 58.3913 9.8C58.3913 7.65333 59.1473 5.97333 60.6593 4.76C62.1339 3.584 64.1313 2.996 66.6513 2.996C68.7793 2.996 70.5526 3.42533 71.9713 4.284C73.4086 5.14267 74.2579 6.328 74.5193 7.84V10.024H69.8993C69.7686 9.31467 69.4233 8.74534 68.8633 8.316C68.3219 7.868 67.5753 7.644 66.6233 7.644C64.8499 7.644 63.9633 8.26933 63.9633 9.52C63.9633 10.4533 64.7566 11.032 66.3433 11.256L68.4153 11.564C70.4499 11.8813 72.0833 12.572 73.3153 13.636C74.5659 14.7187 75.1913 16.184 75.1913 18.032C75.1913 20.16 74.4166 21.8587 72.8673 23.128C71.3179 24.3787 69.2739 25.004 66.7353 25.004Z" fill="white"/>
<path d="M86.7165 24.5H81.0325V9.156L80.6405 9.464H76.5525V7.28L82.2645 3.5H86.7165V24.5Z" fill="white"/>
<path d="M110.309 21.344C109.093 22.608 107.469 23.24 105.437 23.24C103.405 23.24 101.773 22.608 100.541 21.344C99.3246 20.08 98.7166 18.472 98.7166 16.52V4.99999H100.781V16.544C100.781 18 101.197 19.192 102.029 20.12C102.845 21.064 103.981 21.536 105.437 21.536C106.973 21.536 108.165 21.064 109.013 20.12C109.845 19.192 110.261 18 110.261 16.544V4.99999H112.157V16.52C112.157 18.472 111.541 20.08 110.309 21.344Z" fill="#8E9291"/>
<path d="M118.113 23H116.217V11.072H117.897L118.041 13.088C118.329 12.464 118.801 11.936 119.457 11.504C120.129 11.056 120.937 10.832 121.881 10.832C123.433 10.832 124.569 11.288 125.289 12.2C126.009 13.112 126.369 14.36 126.369 15.944V23H124.473V16.16C124.473 13.68 123.473 12.44 121.473 12.44C120.337 12.44 119.489 12.8 118.929 13.52C118.385 14.256 118.113 15.128 118.113 16.136V23Z" fill="#8E9291"/>
<path d="M132.039 7.95199H129.783V5.72H132.039V7.95199ZM131.871 23H129.975V11.072H131.871V23Z" fill="#8E9291"/>
<path d="M138.311 23H136.415V12.704H134.255V11.072H136.415V8.912C136.415 7.568 136.759 6.544 137.447 5.83999C138.151 5.11999 139.079 4.75999 140.231 4.75999C140.999 4.75999 141.647 4.91999 142.175 5.24C142.703 5.544 143.055 5.912 143.231 6.344V7.61599H141.911C141.847 7.32799 141.671 7.06399 141.383 6.824C141.111 6.584 140.735 6.464 140.255 6.464C138.959 6.464 138.311 7.264 138.311 8.86399V11.072H142.175V12.704H138.311V23Z" fill="#8E9291"/>
<path d="M146.429 7.95199H144.173V5.72H146.429V7.95199ZM146.261 23H144.365V11.072H146.261V23Z" fill="#8E9291"/>
<path d="M155.27 23.24C153.334 23.24 151.846 22.664 150.806 21.512C149.766 20.376 149.246 18.88 149.246 17.024C149.246 15.264 149.758 13.792 150.782 12.608C151.806 11.424 153.23 10.832 155.054 10.832C156.814 10.832 158.15 11.32 159.062 12.296C159.99 13.256 160.454 14.52 160.454 16.088L160.382 17.288H151.142C151.206 18.648 151.598 19.712 152.318 20.48C153.038 21.232 154.022 21.608 155.27 21.608C156.39 21.608 157.254 21.392 157.862 20.96C158.47 20.528 158.83 20.112 158.942 19.712H160.19V20.96C160.174 21.04 160.11 21.16 159.998 21.32C159.886 21.464 159.702 21.656 159.446 21.896C159.19 22.12 158.886 22.328 158.534 22.52C158.182 22.712 157.718 22.88 157.142 23.024C156.566 23.168 155.942 23.24 155.27 23.24ZM151.238 15.848H158.606C158.606 14.808 158.294 13.984 157.67 13.376C157.062 12.768 156.198 12.464 155.078 12.464C153.958 12.464 153.078 12.768 152.438 13.376C151.798 13.968 151.398 14.792 151.238 15.848Z" fill="#8E9291"/>
<path d="M168.221 23.24C166.541 23.24 165.181 22.648 164.141 21.464C163.117 20.28 162.605 18.8 162.605 17.024C162.605 15.232 163.125 13.752 164.165 12.584C165.205 11.416 166.557 10.832 168.221 10.832C170.221 10.832 171.661 11.624 172.541 13.208V4.99999H174.437V23H172.757L172.517 20.888C171.541 22.456 170.109 23.24 168.221 23.24ZM168.557 21.608C169.693 21.608 170.637 21.2 171.389 20.384C172.157 19.552 172.541 18.432 172.541 17.024C172.541 15.712 172.181 14.624 171.461 13.76C170.741 12.896 169.773 12.464 168.557 12.464C167.293 12.464 166.301 12.896 165.581 13.76C164.861 14.624 164.501 15.712 164.501 17.024C164.501 18.4 164.877 19.512 165.629 20.36C166.381 21.192 167.357 21.608 168.557 21.608Z" fill="#8E9291"/>
<path d="M185.734 17.792L183.694 23H182.206V21.656L188.902 4.99999H190.558L197.206 21.464V23H195.694L193.654 17.792H185.734ZM186.406 16.112H192.958L189.694 7.73599L186.406 16.112Z" fill="#8E9291"/>
<path d="M202.153 23H200.065V4.99999H204.745C206.681 4.99999 208.217 5.48799 209.353 6.464C210.489 7.456 211.057 8.76799 211.057 10.4C211.057 12.032 210.505 13.408 209.401 14.528C208.297 15.648 206.745 16.208 204.745 16.208H202.153V23ZM202.153 6.704V14.504H204.721C206.049 14.504 207.089 14.136 207.841 13.4C208.609 12.648 208.993 11.672 208.993 10.472C208.993 9.416 208.617 8.528 207.865 7.808C207.113 7.072 206.065 6.704 204.721 6.704H202.153Z" fill="#8E9291"/>
<path d="M216.379 23H214.291V4.99999H216.379V23Z" fill="#8E9291"/>
</svg>
